<svg width="100" height="100" version="1.1" xmlns="http://www.w3.org/2000/svg" desc="Created with imagetracer.js version 1.2.6" ><path fill="rgb(86,78,110)" stroke="rgb(86,78,110)" stroke-width="1" opacity="0.9725490196078431" d="M 33.5 42 L 37 43.5 L 38 45.5 L 35.5 49 Q 31.5 49.5 31 46.5 Q 30.5 42.5 33.5 42 Z " /><path fill="rgb(86,78,110)" stroke="rgb(86,78,110)" stroke-width="1" opacity="0.9725490196078431" d="M 63.5 42 L 67 43.5 L 68 45.5 L 65.5 49 Q 61.5 49.5 61 46.5 Q 60.5 42.5 63.5 42 Z " /><path fill="rgb(86,78,110)" stroke="rgb(86,78,110)" stroke-width="1" opacity="0.9725490196078431" d="M 46 48 L 54 48 L 54 50.5 L 51 54.5 Q 51.8 56.8 55.5 56 L 59 54 L 56.5 58 L 49.5 57 Q 48.3 59.3 43.5 58 L 41 54 L 44.5 56 L 47.5 56 L 49 53.5 Q 45.2 52.2 46 48 Z " /><path fill="rgb(86,78,110)" stroke="rgb(86,78,110)" stroke-width="1" opacity="0.9725490196078431" d="M 12 53 L 25 53.5 L 12 55 L 12 53 Z " /><path fill="rgb(86,78,110)" stroke="rgb(86,78,110)" stroke-width="1" opacity="0.9725490196078431" d="M 75.5 53 L 87.5 53 L 88 55 Q 83.9 53.1 75.5 54 L 75.5 53 Z " /><path fill="rgb(86,78,110)" stroke="rgb(86,78,110)" stroke-width="1" opacity="0.9725490196078431" d="M 25.5 56 L 24.5 58 L 13.5 62 L 14.5 60 L 25.5 56 Z " /><path fill="rgb(86,78,110)" stroke="rgb(86,78,110)" stroke-width="1" opacity="0.9725490196078431" d="M 74.5 56 L 87 61.5 L 85.5 62 L 78.5 58 L 75.5 58 L 74.5 56 Z " /><path fill="rgb(86,78,110)" stroke="rgb(86,78,110)" stroke-width="1" opacity="0.9725490196078431" d="M 74.5 66 L 76 66.5 L 60.5 72 L 39.5 72 L 31 69.5 L 34.5 69 L 40.5 71 L 60.5 71 L 74.5 66 Z " /><path fill="rgb(86,78,110)" stroke="rgb(86,78,110)" stroke-width="1" opacity="0.9725490196078431" d="M 35.5 82 L 38 88.5 L 36 87.5 L 35.5 82 Z " /><path fill="rgb(86,78,110)" stroke="rgb(86,78,110)" stroke-width="1" opacity="0.9725490196078431" d="M 64.5 82 L 65 84.5 L 62.5 89 L 63 87.5 L 64.5 82 Z " /><path fill="rgb(92,230,244)" stroke="rgb(92,230,244)" stroke-width="1" opacity="0.9372549019607843" d="M 25.5 10 L 27 10.5 L 23.5 13 L 25.5 10 Z " /><path fill="rgb(92,230,244)" stroke="rgb(92,230,244)" stroke-width="1" opacity="0.9372549019607843" d="M 73.5 10 L 77 12.5 L 74.5 11 L 73.5 10 Z " /><path fill="rgb(92,230,244)" stroke="rgb(92,230,244)" stroke-width="1" opacity="0.9372549019607843" d="M 37.5 16 L 41 18.5 L 39.5 19 L 37.5 16 Z " /><path fill="rgb(92,230,244)" stroke="rgb(92,230,244)" stroke-width="1" opacity="0.9372549019607843" d="M 62.5 16 L 60.5 19 L 59 18.5 L 62.5 16 Z " /><path fill="rgb(92,230,244)" stroke="rgb(92,230,244)" stroke-width="1" opacity="0.9372549019607843" d="M 44.5 17 L 47 17.5 L 44.5 18 L 44.5 17 Z " /><path fill="rgb(92,230,244)" stroke="rgb(92,230,244)" stroke-width="1" opacity="0.9372549019607843" d="M 53.5 17 L 56 17.5 L 53.5 18 L 53.5 17 Z " /><path fill="rgb(92,230,244)" stroke="rgb(92,230,244)" stroke-width="1" opacity="0.9372549019607843" d="M 14.5 49 L 15 52.5 L 14 52.5 L 14.5 49 Z " /><path fill="rgb(92,230,244)" stroke="rgb(92,230,244)" stroke-width="1" opacity="0.9372549019607843" d="M 85.5 49 L 86 52.5 L 85 52.5 L 85.5 49 Z " /><path fill="rgb(92,230,244)" stroke="rgb(92,230,244)" stroke-width="1" opacity="0.9372549019607843" d="M 18.5 60 L 21.5 64 L 18.5 60 Z " /><path fill="rgb(92,230,244)" stroke="rgb(92,230,244)" stroke-width="1" opacity="0.9372549019607843" d="M 81.5 60 L 78.5 64 L 81.5 60 Z " /><path fill="rgb(92,230,244)" stroke="rgb(92,230,244)" stroke-width="1" opacity="0.9372549019607843" d="M 18.5 85 L 19 87.5 L 18 87.5 L 18.5 85 Z " /><path fill="rgb(92,230,244)" stroke="rgb(92,230,244)" stroke-width="1" opacity="0.9372549019607843" d="M 81.5 85 L 82 87.5 L 81 87.5 L 81.5 85 Z " /><path fill="rgb(92,230,244)" stroke="rgb(92,230,244)" stroke-width="1" opacity="0.9372549019607843" d="M 20.5 89 L 80 89.5 L 20.5 90 L 20.5 89 Z " /><path fill="rgb(0,0,0)" stroke="rgb(0,0,0)" stroke-width="1" opacity="0" d="M 0 0 L 100 0 L 100 100 L 0 100 L 0 0 Z M 25 10 L 22 13 L 19 21 L 19 31 L 20 32 L 14 45 L 14 53 L 12 53 Q 11 56 14 55 L 16 59 Q 17 61 15 60 L 14 62 L 16 61 L 18 61 L 23 65 L 23 69 L 18 82 Q 16 88 20 90 L 81 90 L 82 89 L 82 82 L 77 69 L 77 65 L 83 61 L 86 62 L 87 62 L 84 60 L 85 57 L 88 55 Q 89 52 86 53 Q 87 40 81 33 L 81 31 Q 83 16 76 10 Q 64 11 60 18 L 52 16 L 41 18 L 30 10 L 25 10 Z " /><path fill="rgb(92,236,250)" stroke="rgb(92,236,250)" stroke-width="1" opacity="1" d="M 25.5 11 L 28.5 11 L 39.5 19 L 41.5 19 L 47.5 17 L 52.5 17 L 60.5 19 Q 64.9 12.4 74.5 11 Q 81.2 16.3 80 29.5 L 79 32.5 Q 85.8 39.5 85 53 L 75.5 52 L 74.5 54 L 83.5 54 L 84 56.5 L 82.5 59 L 74 56 Q 72.7 59.3 77.5 58 L 81 60.5 Q 76 66.5 67.5 69 L 57.5 71 L 42.5 71 L 30 68 Q 28.8 71 32.5 70 L 45.5 73 L 54.5 73 L 55.5 72 L 66.5 71 L 75.5 67 Q 81 75.8 81 89 L 64.5 89 L 64 86.5 L 65 81.5 L 64 81.5 L 62 89 L 38.5 89 L 38 87.5 L 35.5 81 L 35 85.5 L 36 89 L 19 89 L 19 82.5 L 25 65.5 L 19 60.5 L 26 58 Q 27.1 55.3 24.5 56 L 17.5 59 L 16 54 L 26 53.5 Q 24.8 50.8 19.5 52 L 15 53 L 16 41.5 L 21 30.5 L 20 29.5 L 20 21.5 L 23 13.5 L 25.5 11 Z M 26 15 L 24 21 L 25 28 L 35 21 L 29 15 L 26 15 Z M 72 15 L 65 21 L 73 25 L 76 28 Q 77 20 74 17 Q 75 14 72 15 Z M 33 38 L 31 39 L 27 44 L 28 50 L 33 53 L 39 52 L 42 47 L 40 40 L 33 38 Z M 63 38 L 61 39 L 57 44 L 58 50 L 63 53 L 69 52 L 72 47 L 70 40 L 63 38 Z M 48 47 L 45 50 Q 49 51 48 56 Q 44 57 43 54 Q 40 53 41 57 L 45 59 Q 49 60 50 57 L 53 59 L 58 58 L 59 54 L 56 56 L 52 56 L 52 54 L 55 50 Q 54 46 48 47 Z " /><path fill="rgb(108,190,205)" stroke="rgb(108,190,205)" stroke-width="1" opacity="1" d="M 28.5 15 L 29.5 17 L 28.5 15 Z " /><path fill="rgb(108,190,205)" stroke="rgb(108,190,205)" stroke-width="1" opacity="1" d="M 71.5 15 L 70.5 17 L 71.5 15 Z " /><path fill="rgb(108,190,205)" stroke="rgb(108,190,205)" stroke-width="1" opacity="1" d="M 31.5 17 L 34.5 21 L 31.5 17 Z " /><path fill="rgb(108,190,205)" stroke="rgb(108,190,205)" stroke-width="1" opacity="1" d="M 68.5 17 L 65.5 21 L 68.5 17 Z " /><path fill="rgb(108,190,205)" stroke="rgb(108,190,205)" stroke-width="1" opacity="1" d="M 32.5 21 L 31.5 23 L 32.5 21 Z " /><path fill="rgb(108,190,205)" stroke="rgb(108,190,205)" stroke-width="1" opacity="1" d="M 67.5 21 L 68.5 23 L 67.5 21 Z " /><path fill="rgb(108,190,205)" stroke="rgb(108,190,205)" stroke-width="1" opacity="1" d="M 29.5 23 L 28.5 25 L 29.5 23 Z " /><path fill="rgb(108,190,205)" stroke="rgb(108,190,205)" stroke-width="1" opacity="1" d="M 70.5 23 L 71.5 25 L 70.5 23 Z " /><path fill="rgb(108,190,205)" stroke="rgb(108,190,205)" stroke-width="1" opacity="1" d="M 25.5 26 L 24.5 28 L 25.5 26 Z " /><path fill="rgb(108,190,205)" stroke="rgb(108,190,205)" stroke-width="1" opacity="1" d="M 74.5 26 L 75.5 28 L 74.5 26 Z " /><path fill="rgb(108,190,205)" stroke="rgb(108,190,205)" stroke-width="1" opacity="1" d="M 31.5 47 L 32.5 49 L 31.5 47 Z " /><path fill="rgb(108,190,205)" stroke="rgb(108,190,205)" stroke-width="1" opacity="1" d="M 47.5 47 L 53 47.5 L 47.5 48 L 47.5 47 Z " /><path fill="rgb(108,190,205)" stroke="rgb(108,190,205)" stroke-width="1" opacity="1" d="M 61.5 47 L 62.5 49 L 61.5 47 Z " /><path fill="rgb(108,190,205)" stroke="rgb(108,190,205)" stroke-width="1" opacity="1" d="M 46.5 51 L 49 54.5 L 48 54.5 L 46.5 51 Z " /><path fill="rgb(108,190,205)" stroke="rgb(108,190,205)" stroke-width="1" opacity="1" d="M 53.5 51 L 52 53.5 L 51.5 55 L 51 53.5 L 53.5 51 Z " /><path fill="rgb(108,190,205)" stroke="rgb(108,190,205)" stroke-width="1" opacity="1" d="M 19.5 52 Q 24.8 50.8 26 53.5 L 24.5 53 Q 18.5 54.3 19.5 52 Z " /><path fill="rgb(108,190,205)" stroke="rgb(108,190,205)" stroke-width="1" opacity="1" d="M 75.5 52 L 81 52.5 L 74.5 54 L 75.5 52 Z " /><path fill="rgb(108,190,205)" stroke="rgb(108,190,205)" stroke-width="1" opacity="1" d="M 24.5 56 L 25.5 58 L 24.5 56 Z " /><path fill="rgb(108,190,205)" stroke="rgb(108,190,205)" stroke-width="1" opacity="1" d="M 41.5 56 L 42.5 58 L 41.5 56 Z " /><path fill="rgb(108,190,205)" stroke="rgb(108,190,205)" stroke-width="1" opacity="1" d="M 58.5 56 L 57.5 58 L 58.5 56 Z " /><path fill="rgb(108,190,205)" stroke="rgb(108,190,205)" stroke-width="1" opacity="1" d="M 21.5 57 L 22.5 59 L 21.5 57 Z " /><path fill="rgb(108,190,205)" stroke="rgb(108,190,205)" stroke-width="1" opacity="1" d="M 79.5 57 L 78.5 59 L 79.5 57 Z " /><path fill="rgb(108,190,205)" stroke="rgb(108,190,205)" stroke-width="1" opacity="1" d="M 18.5 58 L 19.5 60 L 18.5 58 Z " /><path fill="rgb(108,190,205)" stroke="rgb(108,190,205)" stroke-width="1" opacity="1" d="M 44.5 58 L 48 58.5 L 44.5 59 L 44.5 58 Z " /><path fill="rgb(108,190,205)" stroke="rgb(108,190,205)" stroke-width="1" opacity="1" d="M 52.5 58 L 56 58.5 L 52.5 59 L 52.5 58 Z " /><path fill="rgb(108,190,205)" stroke="rgb(108,190,205)" stroke-width="1" opacity="1" d="M 81.5 58 L 80.5 60 L 81.5 58 Z " /><path fill="rgb(108,190,205)" stroke="rgb(108,190,205)" stroke-width="1" opacity="1" d="M 73.5 66 L 74.5 68 L 73.5 66 Z " /><path fill="rgb(108,190,205)" stroke="rgb(108,190,205)" stroke-width="1" opacity="1" d="M 30 68 L 33 68.5 L 30.5 70 L 30 68 Z " /><path fill="rgb(108,190,205)" stroke="rgb(108,190,205)" stroke-width="1" opacity="1" d="M 68.5 68 L 69.5 70 L 68.5 68 Z " /><path fill="rgb(108,190,205)" stroke="rgb(108,190,205)" stroke-width="1" opacity="1" d="M 35.5 69 L 34.5 71 L 33 70.5 L 35.5 69 Z " /><path fill="rgb(108,190,205)" stroke="rgb(108,190,205)" stroke-width="1" opacity="1" d="M 64.5 69 L 67 70.5 L 65.5 71 L 64.5 69 Z " /><path fill="rgb(108,190,205)" stroke="rgb(108,190,205)" stroke-width="1" opacity="1" d="M 58.5 70 L 63 71.5 L 61.5 72 L 58.5 71 L 58.5 70 Z " /><path fill="rgb(108,190,205)" stroke="rgb(108,190,205)" stroke-width="1" opacity="1" d="M 45.5 72 L 55 72.5 L 45.5 73 L 45.5 72 Z " /><path fill="rgb(108,190,205)" stroke="rgb(108,190,205)" stroke-width="1" opacity="1" d="M 36.5 83 L 37 84.5 L 35 85.5 L 36.5 83 Z " /><path fill="rgb(108,190,205)" stroke="rgb(108,190,205)" stroke-width="1" opacity="1" d="M 63.5 83 L 65 85.5 L 63 84.5 L 63.5 83 Z " /><path fill="rgb(108,190,205)" stroke="rgb(108,190,205)" stroke-width="1" opacity="1" d="M 37.5 87 L 36.5 89 L 37.5 87 Z " /><path fill="rgb(108,190,205)" stroke="rgb(108,190,205)" stroke-width="1" opacity="1" d="M 62.5 87 L 63.5 89 L 62.5 87 Z " /><path fill="rgb(249,213,211)" stroke="rgb(249,213,211)" stroke-width="1" opacity="1" d="M 27.5 15 L 34 20.5 L 24.5 27 L 24 22.5 L 27.5 15 Z " /><path fill="rgb(249,213,211)" stroke="rgb(249,213,211)" stroke-width="1" opacity="1" d="M 72.5 15 Q 76.5 18.5 76 26.5 L 74.5 26 L 66 20.5 L 72.5 15 Z " /><path fill="rgb(249,213,211)" stroke="rgb(249,213,211)" stroke-width="1" opacity="1" d="M 32.5 38 L 40 40 L 42 46.5 L 38.5 52 L 32.5 53 L 28 49.5 L 27 43.5 L 30.5 39 L 32.5 38 Z M 34 42 Q 30 43 31 48 Q 32 50 36 49 Q 39 49 38 45 Q 38 42 34 42 Z " /><path fill="rgb(249,213,211)" stroke="rgb(249,213,211)" stroke-width="1" opacity="1" d="M 62.5 38 L 70 40 L 72 46.5 L 68.5 52 L 62.5 53 L 58 49.5 L 57 43.5 L 60.5 39 L 62.5 38 Z M 64 42 L 63 43 Q 59 42 61 48 Q 62 50 66 49 Q 69 49 68 45 Q 67 42 64 42 Z " /><path fill="rgb(89,236,249)" stroke="rgb(89,236,249)" stroke-width="1" opacity="0.30196078431372547" d="M 24.5 10 L 23 12.5 L 20.5 19 L 20 16.5 L 24.5 10 Z " /><path fill="rgb(89,236,249)" stroke="rgb(89,236,249)" stroke-width="1" opacity="0.30196078431372547" d="M 27.5 10 Q 35.8 11.7 40 17.5 L 37.5 16 L 27.5 11 L 27.5 10 Z " /><path fill="rgb(89,236,249)" stroke="rgb(89,236,249)" stroke-width="1" opacity="0.30196078431372547" d="M 70.5 10 L 73 10.5 Q 65 12.5 60.5 18 L 63.5 14 L 70.5 10 Z " /><path fill="rgb(89,236,249)" stroke="rgb(89,236,249)" stroke-width="1" opacity="0.30196078431372547" d="M 75.5 10 Q 79.4 12.6 80 18.5 L 79 18.5 L 75.5 10 Z " /><path fill="rgb(89,236,249)" stroke="rgb(89,236,249)" stroke-width="1" opacity="0.30196078431372547" d="M 48.5 16 L 52 16.5 L 48.5 17 L 48.5 16 Z " /><path fill="rgb(89,236,249)" stroke="rgb(89,236,249)" stroke-width="1" opacity="0.30196078431372547" d="M 41.5 17 L 44 17.5 L 41.5 18 L 41.5 17 Z " /><path fill="rgb(89,236,249)" stroke="rgb(89,236,249)" stroke-width="1" opacity="0.30196078431372547" d="M 56.5 17 L 59 17.5 L 56.5 18 L 56.5 17 Z " /><path fill="rgb(89,236,249)" stroke="rgb(89,236,249)" stroke-width="1" opacity="0.30196078431372547" d="M 19.5 20 L 20 30.5 L 19 30.5 L 19.5 20 Z " /><path fill="rgb(89,236,249)" stroke="rgb(89,236,249)" stroke-width="1" opacity="0.30196078431372547" d="M 80.5 20 L 81 30.5 L 80 30.5 L 80.5 20 Z " /><path fill="rgb(89,236,249)" stroke="rgb(89,236,249)" stroke-width="1" opacity="0.30196078431372547" d="M 19.5 32 L 20 33.5 L 18 34.5 L 19.5 32 Z " /><path fill="rgb(89,236,249)" stroke="rgb(89,236,249)" stroke-width="1" opacity="0.30196078431372547" d="M 80.5 32 L 83 36.5 L 81 35.5 L 80.5 32 Z " /><path fill="rgb(89,236,249)" stroke="rgb(89,236,249)" stroke-width="1" opacity="0.30196078431372547" d="M 16.5 38 L 17 39.5 L 15.5 43 L 15 40.5 L 16.5 38 Z " /><path fill="rgb(89,236,249)" stroke="rgb(89,236,249)" stroke-width="1" opacity="0.30196078431372547" d="M 83.5 38 L 85 42.5 L 84 42.5 L 83.5 38 Z " /><path fill="rgb(89,236,249)" stroke="rgb(89,236,249)" stroke-width="1" opacity="0.30196078431372547" d="M 14.5 44 L 15 48.5 L 14 48.5 L 14.5 44 Z " /><path fill="rgb(89,236,249)" stroke="rgb(89,236,249)" stroke-width="1" opacity="0.30196078431372547" d="M 85.5 44 L 86 48.5 L 85 48.5 L 85.5 44 Z " /><path fill="rgb(89,236,249)" stroke="rgb(89,236,249)" stroke-width="1" opacity="0.30196078431372547" d="M 15.5 57 L 16.5 59 L 15.5 57 Z " /><path fill="rgb(89,236,249)" stroke="rgb(89,236,249)" stroke-width="1" opacity="0.30196078431372547" d="M 84.5 57 L 83.5 59 L 84.5 57 Z " /><path fill="rgb(89,236,249)" stroke="rgb(89,236,249)" stroke-width="1" opacity="0.30196078431372547" d="M 82.5 60 L 78.5 65 Q 75.9 64.2 77 67.5 L 76 67.5 L 77.5 64 L 82.5 60 Z " /><path fill="rgb(89,236,249)" stroke="rgb(89,236,249)" stroke-width="1" opacity="0.30196078431372547" d="M 18.5 61 L 24 65.5 L 23.5 68 L 23 65 L 18.5 61 Z " /><path fill="rgb(89,236,249)" stroke="rgb(89,236,249)" stroke-width="1" opacity="0.30196078431372547" d="M 77.5 69 L 79 72.5 L 78 72.5 L 77.5 69 Z " /><path fill="rgb(89,236,249)" stroke="rgb(89,236,249)" stroke-width="1" opacity="0.30196078431372547" d="M 19.5 77 L 20 79.5 L 19 79.5 L 19.5 77 Z " /><path fill="rgb(89,236,249)" stroke="rgb(89,236,249)" stroke-width="1" opacity="0.30196078431372547" d="M 80.5 77 L 81 79.5 L 80 79.5 L 80.5 77 Z " /><path fill="rgb(89,236,249)" stroke="rgb(89,236,249)" stroke-width="1" opacity="0.30196078431372547" d="M 18.5 81 L 19 84.5 L 18 84.5 L 18.5 81 Z " /><path fill="rgb(89,236,249)" stroke="rgb(89,236,249)" stroke-width="1" opacity="0.30196078431372547" d="M 81.5 81 L 82 84.5 L 81 84.5 L 81.5 81 Z " /><path fill="rgb(89,236,249)" stroke="rgb(89,236,249)" stroke-width="1" opacity="0.30196078431372547" d="M 18.5 88 L 19.5 90 L 18.5 88 Z " /><path fill="rgb(89,236,249)" stroke="rgb(89,236,249)" stroke-width="1" opacity="0.30196078431372547" d="M 81.5 88 L 80.5 90 L 81.5 88 Z " /></svg>